<svg xmlns="http://www.w3.org/2000/svg" xmlns:inkscape="http://www.inkscape.org/namespaces/inkscape" xmlns:sodipodi="http://sodipodi.sourceforge.net/DTD/sodipodi-0.0.dtd" viewBox="0 0 8.5 11" width="8.5in" height="11in">
  <g inkscape:groupmode="layer" id="paper" inkscape:label="Paper">
    <rect x="0" y="0" width="8.5" height="11" fill="#ffffff" stroke="none"/>
  </g>
  <g inkscape:groupmode="layer" id="hatch" inkscape:label="Hatch">
    <g transform="translate(0.5,2.25240473581) scale(0.01875)" fill="none" stroke="#000000" stroke-width="0.629921259843" stroke-linecap="round">
      <path d="M74.999,69.949 L76.923,73.280 L73.076,73.280 L74.999,69.949"/>
      <path d="M75.000,63.286 L82.692,76.610 L67.308,76.610 L75.000,63.286"/>
      <path d="M75.000,56.624 L88.462,79.941 L61.538,79.941 L75.000,56.624"/>
      <path d="M98.438,56.833 L101.562,56.833 L100.000,59.539 L98.438,56.833"/>
      <path d="M93.750,54.126 L106.250,54.126 L100.000,64.952 L93.750,54.126"/>
      <path d="M89.062,51.420 L110.938,51.420 L100.000,70.366 L89.062,51.420"/>
      <path d="M84.375,48.714 L115.625,48.714 L100.000,75.777 L84.375,48.714"/>
      <path d="M75.000,49.963 L94.231,83.272 L55.769,83.272 L75.000,49.963"/>
      <path d="M79.687,46.007 L120.313,46.007 L100.000,81.190 L79.687,46.007"/>
      <path d="M103.846,26.647 L109.615,16.654 L121.154,16.654 L115.385,26.647 L103.846,26.647"/>
      <path d="M109.616,23.316 L111.539,19.985 L115.384,19.985 L113.461,23.316 L109.616,23.316"/>
      <path d="M117.308,29.978 L98.076,29.978 L107.692,13.323 L126.924,13.323 L117.308,29.978"/>
      <path d="M119.231,33.308 L92.308,33.308 L105.769,9.993 L132.692,9.993 L119.231,33.308"/>
      <path d="M121.154,36.639 L86.538,36.639 L103.846,6.662 L138.462,6.662 L121.154,36.639"/>
      <path d="M123.077,39.970 L80.769,39.970 L101.923,3.331 L144.231,3.331 L123.077,39.970"/>
      <path d="M148.438,29.769 L150.000,27.064 L151.562,29.769 L148.438,29.769"/>
      <path d="M143.750,32.476 L150.000,21.651 L156.250,32.476 L143.750,32.476"/>
      <path d="M139.063,35.182 L150.000,16.238 L160.937,35.182 L139.063,35.182"/>
      <path d="M134.375,37.888 L150.000,10.824 L165.625,37.888 L134.375,37.888"/>
      <path d="M136.539,63.286 L140.385,63.286 L138.461,66.618 L134.615,66.618 L136.539,63.286"/>
      <path d="M134.615,59.955 L146.154,59.955 L140.385,69.949 L128.846,69.949 L134.615,59.955"/>
      <path d="M132.693,56.624 L151.923,56.624 L142.307,73.280 L123.077,73.280 L132.693,56.624"/>
      <path d="M130.769,53.294 L157.692,53.294 L144.231,76.610 L117.308,76.610 L130.769,53.294"/>
      <path d="M128.846,49.963 L163.462,49.963 L146.154,79.941 L111.538,79.941 L128.846,49.963"/>
      <path d="M126.923,46.632 L169.231,46.632 L148.077,83.272 L105.769,83.272 L126.923,46.632"/>
      <path d="M129.687,40.595 L150.000,5.413 L170.313,40.595 L129.687,40.595"/>
      <path d="M155.769,3.331 L194.231,3.331 L175.000,36.639 L155.769,3.331"/>
      <path d="M173.076,13.323 L176.924,13.323 L175.000,16.655 L173.076,13.323"/>
      <path d="M167.308,9.993 L182.692,9.993 L175.000,23.316 L167.308,9.993"/>
      <path d="M161.538,6.662 L188.462,6.662 L175.000,29.978 L161.538,6.662"/>
      <path d="M198.438,29.769 L200.000,27.064 L201.562,29.769 L198.438,29.769"/>
      <path d="M193.750,32.476 L200.000,21.651 L206.250,32.476 L193.750,32.476"/>
      <path d="M189.063,35.182 L200.000,16.238 L210.937,35.182 L189.063,35.182"/>
      <path d="M184.375,37.888 L200.000,10.824 L215.625,37.888 L184.375,37.888"/>
      <path d="M179.687,40.595 L200.000,5.413 L220.313,40.595 L179.687,40.595"/>
      <path d="M175.000,64.952 L181.250,75.778 L168.750,75.778 L175.000,64.952"/>
      <path d="M175.000,54.127 L190.625,81.190 L159.375,81.190 L175.000,54.127"/>
      <path d="M205.000,60.622 L215.000,60.622 L220.000,69.282 L210.000,69.282 L205.000,60.622"/>
      <path d="M197.499,56.291 L217.500,56.291 L227.501,73.613 L207.500,73.613 L197.499,56.291"/>
      <path d="M225.000,36.639 L205.769,3.331 L244.231,3.331 L225.000,36.639"/>
      <path d="M225.000,29.978 L211.538,6.662 L238.462,6.662 L225.000,29.978"/>
      <path d="M225.000,23.316 L217.308,9.993 L232.692,9.993 L225.000,23.316"/>
      <path d="M225.000,16.655 L223.076,13.323 L226.924,13.323 L225.000,16.655"/>
      <path d="M248.438,29.769 L250.000,27.064 L251.562,29.769 L248.438,29.769"/>
      <path d="M243.750,32.476 L250.000,21.651 L256.250,32.476 L243.750,32.476"/>
      <path d="M239.063,35.182 L250.000,16.238 L260.937,35.182 L239.063,35.182"/>
      <path d="M234.375,37.888 L250.000,10.824 L265.625,37.888 L234.375,37.888"/>
      <path d="M229.687,40.595 L250.000,5.413 L270.313,40.595 L229.687,40.595"/>
      <path d="M220.000,51.961 L235.000,77.943 L205.000,77.943 L190.000,51.961 L220.000,51.961"/>
      <path d="M222.500,47.631 L242.500,82.273 L202.500,82.273 L182.500,47.631 L222.500,47.631"/>
      <path d="M259.615,63.286 L263.461,63.286 L265.385,66.618 L261.539,66.618 L259.615,63.286"/>
      <path d="M253.846,59.955 L265.385,59.955 L271.154,69.949 L259.615,69.949 L253.846,59.955"/>
      <path d="M248.077,56.624 L267.307,56.624 L276.923,73.280 L257.693,73.280 L248.077,56.624"/>
      <path d="M242.308,53.294 L269.231,53.294 L282.692,76.610 L255.769,76.610 L242.308,53.294"/>
      <path d="M236.538,49.963 L271.154,49.963 L288.462,79.941 L253.846,79.941 L236.538,49.963"/>
      <path d="M286.539,23.316 L284.616,19.985 L288.461,19.985 L290.384,23.316 L286.539,23.316"/>
      <path d="M284.615,26.647 L278.846,16.654 L290.385,16.654 L296.154,26.647 L284.615,26.647"/>
      <path d="M282.692,29.978 L273.076,13.323 L292.308,13.323 L301.924,29.978 L282.692,29.978"/>
      <path d="M280.769,33.308 L267.308,9.993 L294.231,9.993 L307.692,33.308 L280.769,33.308"/>
      <path d="M298.438,56.833 L301.562,56.833 L300.000,59.539 L298.438,56.833"/>
      <path d="M293.750,54.126 L306.250,54.126 L300.000,64.952 L293.750,54.126"/>
      <path d="M289.062,51.420 L310.938,51.420 L300.000,70.366 L289.062,51.420"/>
      <path d="M284.375,48.714 L315.625,48.714 L300.000,75.777 L284.375,48.714"/>
      <path d="M278.846,36.639 L261.538,6.662 L296.154,6.662 L313.462,36.639 L278.846,36.639"/>
      <path d="M276.923,39.970 L255.769,3.331 L298.077,3.331 L319.231,39.970 L276.923,39.970"/>
      <path d="M273.077,46.632 L294.231,83.272 L251.923,83.272 L230.769,46.632 L273.077,46.632"/>
      <path d="M279.687,46.007 L320.313,46.007 L300.000,81.190 L279.687,46.007"/>
      <path d="M325.000,69.949 L326.923,73.280 L323.077,73.280 L325.000,69.949"/>
      <path d="M325.000,63.286 L332.692,76.610 L317.308,76.610 L325.000,63.286"/>
      <path d="M325.000,56.624 L338.462,79.941 L311.538,79.941 L325.000,56.624"/>
      <path d="M325.000,49.963 L344.231,83.272 L305.769,83.272 L325.000,49.963"/>
      <path d="M323.438,100.135 L326.562,100.135 L325.000,102.840 L323.438,100.135"/>
      <path d="M318.750,97.428 L331.250,97.428 L325.000,108.253 L318.750,97.428"/>
      <path d="M314.063,94.722 L335.937,94.722 L325.000,113.666 L314.063,94.722"/>
      <path d="M309.375,92.016 L340.625,92.016 L325.000,119.080 L309.375,92.016"/>
      <path d="M304.687,89.309 L345.313,89.309 L325.000,124.491 L304.687,89.309"/>
      <path d="M281.250,97.428 L275.000,108.253 L268.750,97.428 L281.250,97.428"/>
      <path d="M290.625,92.016 L275.000,119.080 L259.375,92.016 L290.625,92.016"/>
      <path d="M300.000,121.244 L305.000,129.904 L300.000,138.564 L295.000,129.904 L300.000,121.244"/>
      <path d="M300.000,112.583 L310.000,129.904 L300.000,147.225 L290.000,129.904 L300.000,112.583"/>
      <path d="M300.000,103.923 L315.000,129.904 L300.000,155.885 L285.000,129.904 L300.000,103.923"/>
      <path d="M300.000,95.263 L320.000,129.904 L300.000,164.545 L280.000,129.904 L300.000,95.263"/>
      <path d="M348.076,116.581 L349.999,113.250 L351.923,116.581 L348.076,116.581"/>
      <path d="M342.308,119.911 L350.000,106.588 L357.692,119.911 L342.308,119.911"/>
      <path d="M336.538,123.242 L350.000,99.926 L363.462,123.242 L336.538,123.242"/>
      <path d="M348.438,143.436 L351.562,143.436 L350.000,146.141 L348.438,143.436"/>
      <path d="M343.750,140.729 L356.250,140.729 L350.000,151.554 L343.750,140.729"/>
      <path d="M339.063,138.023 L360.937,138.023 L350.000,156.967 L339.063,138.023"/>
      <path d="M334.375,135.317 L365.625,135.317 L350.000,162.381 L334.375,135.317"/>
      <path d="M330.769,126.573 L350.000,93.265 L369.231,126.573 L330.769,126.573"/>
      <path d="M329.687,132.610 L370.313,132.610 L350.000,167.792 L329.687,132.610"/>
      <path d="M325.000,163.212 L330.769,173.205 L325.000,183.198 L319.231,173.205 L325.000,163.212"/>
      <path d="M325.000,169.875 L326.923,173.205 L325.000,176.535 L323.077,173.205 L325.000,169.875"/>
      <path d="M334.616,173.205 L325.000,189.860 L315.384,173.205 L325.000,156.550 L334.616,173.205"/>
      <path d="M338.462,173.205 L325.000,196.521 L311.538,173.205 L325.000,149.889 L338.462,173.205"/>
      <path d="M342.308,173.205 L325.000,203.183 L307.692,173.205 L325.000,143.227 L342.308,173.205"/>
      <path d="M346.154,173.205 L325.000,209.844 L303.846,173.205 L325.000,136.566 L346.154,173.205"/>
      <path d="M350.000,200.269 L351.562,202.974 L348.438,202.974 L350.000,200.269"/>
      <path d="M350.000,194.856 L356.250,205.681 L343.750,205.681 L350.000,194.856"/>
      <path d="M350.000,189.443 L360.937,208.387 L339.063,208.387 L350.000,189.443"/>
      <path d="M350.000,184.029 L365.625,211.093 L334.375,211.093 L350.000,184.029"/>
      <path d="M373.077,173.205 L375.000,169.875 L376.923,173.205 L375.000,176.535 L373.077,173.205"/>
      <path d="M369.231,173.205 L375.000,163.212 L380.769,173.205 L375.000,183.198 L369.231,173.205"/>
      <path d="M365.384,173.205 L375.000,156.550 L384.616,173.205 L375.000,189.860 L365.384,173.205"/>
      <path d="M361.538,173.205 L375.000,149.889 L388.462,173.205 L375.000,196.521 L361.538,173.205"/>
      <path d="M357.692,173.205 L375.000,143.227 L392.308,173.205 L375.000,203.183 L357.692,173.205"/>
      <path d="M353.846,173.205 L375.000,136.566 L396.154,173.205 L375.000,209.844 L353.846,173.205"/>
      <path d="M350.000,178.618 L370.313,213.800 L329.687,213.800 L350.000,178.618"/>
      <path d="M315.625,211.093 L284.375,211.093 L300.000,184.029 L315.625,211.093"/>
      <path d="M306.250,205.681 L293.750,205.681 L300.000,194.856 L306.250,205.681"/>
      <path d="M295.000,233.827 L290.000,242.487 L280.000,242.487 L285.000,233.827 L295.000,233.827"/>
      <path d="M302.501,229.496 L292.500,246.818 L272.499,246.818 L282.500,229.496 L302.501,229.496"/>
      <path d="M310.000,225.166 L295.000,251.148 L265.000,251.148 L280.000,225.166 L310.000,225.166"/>
      <path d="M325.000,243.570 L326.562,246.276 L323.438,246.276 L325.000,243.570"/>
      <path d="M325.000,238.157 L331.250,248.983 L318.750,248.983 L325.000,238.157"/>
      <path d="M325.000,232.743 L335.938,251.689 L314.062,251.689 L325.000,232.743"/>
      <path d="M348.077,229.829 L351.923,229.829 L350.000,233.160 L348.077,229.829"/>
      <path d="M342.308,226.499 L357.692,226.499 L350.000,239.823 L342.308,226.499"/>
      <path d="M336.538,223.168 L363.462,223.168 L350.000,246.485 L336.538,223.168"/>
      <path d="M325.000,227.332 L340.625,254.395 L309.375,254.395 L325.000,227.332"/>
      <path d="M330.769,219.837 L369.231,219.837 L350.000,253.146 L330.769,219.837"/>
      <path d="M325.000,221.919 L345.313,257.102 L304.687,257.102 L325.000,221.919"/>
      <path d="M317.500,220.836 L297.500,255.478 L257.500,255.478 L277.500,220.836 L317.500,220.836"/>
      <path d="M323.076,273.131 L326.923,273.131 L324.999,276.462 L323.076,273.131"/>
      <path d="M317.308,269.801 L332.692,269.801 L325.000,283.124 L317.308,269.801"/>
      <path d="M311.538,266.470 L338.462,266.470 L325.000,289.786 L311.538,266.470"/>
      <path d="M300.000,286.872 L301.562,289.577 L298.438,289.577 L300.000,286.872"/>
      <path d="M300.000,281.459 L306.250,292.284 L293.750,292.284 L300.000,281.459"/>
      <path d="M300.000,276.046 L310.937,294.990 L289.063,294.990 L300.000,276.046"/>
      <path d="M300.000,270.632 L315.625,297.696 L284.375,297.696 L300.000,270.632"/>
      <path d="M305.769,263.139 L344.231,263.139 L325.000,296.447 L305.769,263.139"/>
      <path d="M300.000,265.221 L320.313,300.403 L279.687,300.403 L300.000,265.221"/>
      <path d="M271.154,276.462 L265.385,286.455 L253.846,286.455 L259.615,276.462 L271.154,276.462"/>
      <path d="M265.384,279.793 L263.461,283.124 L259.616,283.124 L261.539,279.793 L265.384,279.793"/>
      <path d="M257.692,273.131 L276.924,273.131 L267.308,289.786 L248.076,289.786 L257.692,273.131"/>
      <path d="M255.769,269.801 L282.692,269.801 L269.231,293.116 L242.308,293.116 L255.769,269.801"/>
      <path d="M250.000,242.487 L240.000,225.166 L260.000,225.166 L250.000,242.487"/>
      <path d="M231.250,270.633 L225.000,281.458 L218.750,270.633 L231.250,270.633"/>
      <path d="M240.625,265.221 L225.000,292.285 L209.375,265.221 L240.625,265.221"/>
      <path d="M217.500,298.779 L177.500,298.779 L157.500,264.138 L197.500,264.138 L217.500,298.779"/>
      <path d="M210.000,294.449 L180.000,294.449 L165.000,268.468 L195.000,268.468 L210.000,294.449"/>
      <path d="M202.500,290.119 L182.500,290.119 L172.500,272.798 L192.500,272.798 L202.500,290.119"/>
      <path d="M195.000,285.788 L185.000,285.788 L180.000,277.129 L190.000,277.129 L195.000,285.788"/>
      <path d="M169.231,299.778 L126.923,299.778 L105.769,263.139 L148.077,263.139 L169.231,299.778"/>
      <path d="M163.462,296.447 L128.846,296.447 L111.538,266.470 L146.154,266.470 L163.462,296.447"/>
      <path d="M157.692,293.116 L130.769,293.116 L117.308,269.801 L144.231,269.801 L157.692,293.116"/>
      <path d="M151.924,289.786 L132.692,289.786 L123.076,273.131 L142.308,273.131 L151.924,289.786"/>
      <path d="M146.154,286.455 L134.615,286.455 L128.846,276.462 L140.385,276.462 L146.154,286.455"/>
      <path d="M140.384,283.124 L136.539,283.124 L134.616,279.793 L138.461,279.793 L140.384,283.124"/>
      <path d="M120.313,300.403 L79.687,300.403 L100.000,265.221 L120.313,300.403"/>
      <path d="M115.625,297.696 L84.375,297.696 L100.000,270.632 L115.625,297.696"/>
      <path d="M110.937,294.990 L89.063,294.990 L100.000,276.046 L110.937,294.990"/>
      <path d="M106.250,292.284 L93.750,292.284 L100.000,281.459 L106.250,292.284"/>
      <path d="M101.562,289.577 L98.438,289.577 L100.000,286.872 L101.562,289.577"/>
      <path d="M88.462,266.470 L75.000,289.786 L61.538,266.470 L88.462,266.470"/>
      <path d="M95.313,257.102 L54.687,257.102 L75.000,221.919 L95.313,257.102"/>
      <path d="M90.625,254.395 L59.375,254.395 L75.000,227.332 L90.625,254.395"/>
      <path d="M85.938,251.689 L64.062,251.689 L75.000,232.743 L85.938,251.689"/>
      <path d="M81.250,248.983 L68.750,248.983 L75.000,238.157 L81.250,248.983"/>
      <path d="M76.562,246.276 L73.438,246.276 L75.000,243.570 L76.562,246.276"/>
      <path d="M50.000,246.485 L36.538,223.168 L63.462,223.168 L50.000,246.485"/>
      <path d="M50.000,253.146 L30.769,219.837 L69.231,219.837 L50.000,253.146"/>
      <path d="M50.000,239.823 L42.308,226.499 L57.692,226.499 L50.000,239.823"/>
      <path d="M49.999,233.160 L48.076,229.829 L51.923,229.829 L49.999,233.160"/>
      <path d="M34.375,211.093 L50.000,184.029 L65.625,211.093 L34.375,211.093"/>
      <path d="M48.438,202.974 L50.000,200.269 L51.562,202.974 L48.438,202.974"/>
      <path d="M43.750,205.681 L50.000,194.856 L56.250,205.681 L43.750,205.681"/>
      <path d="M39.063,208.387 L50.000,189.443 L60.937,208.387 L39.063,208.387"/>
      <path d="M29.687,213.800 L50.000,178.618 L70.313,213.800 L29.687,213.800"/>
      <path d="M25.000,183.198 L19.231,173.205 L25.000,163.212 L30.769,173.205 L25.000,183.198"/>
      <path d="M25.000,176.535 L23.077,173.205 L25.000,169.875 L26.923,173.205 L25.000,176.535"/>
      <path d="M34.616,173.205 L25.000,189.860 L15.384,173.205 L25.000,156.550 L34.616,173.205"/>
      <path d="M38.462,173.205 L25.000,196.521 L11.538,173.205 L25.000,149.889 L38.462,173.205"/>
      <path d="M42.308,173.205 L25.000,203.183 L7.692,173.205 L25.000,143.227 L42.308,173.205"/>
      <path d="M46.154,173.205 L25.000,209.844 L3.846,173.205 L25.000,136.566 L46.154,173.205"/>
      <path d="M50.000,167.792 L29.687,132.610 L70.313,132.610 L50.000,167.792"/>
      <path d="M49.999,162.380 L34.375,135.317 L65.624,135.317 L49.999,162.380"/>
      <path d="M50.000,156.968 L39.063,138.023 L60.938,138.023 L50.000,156.968"/>
      <path d="M50.000,151.554 L43.750,140.729 L56.250,140.729 L50.000,151.554"/>
      <path d="M50.000,146.141 L48.438,143.436 L51.562,143.436 L50.000,146.141"/>
      <path d="M63.462,123.242 L36.538,123.242 L50.000,99.926 L63.462,123.242"/>
      <path d="M69.231,126.573 L30.769,126.573 L50.000,93.265 L69.231,126.573"/>
      <path d="M75.000,124.491 L54.687,89.309 L95.313,89.309 L75.000,124.491"/>
      <path d="M74.999,119.079 L59.375,92.016 L90.624,92.016 L74.999,119.079"/>
      <path d="M75.000,113.667 L64.063,94.722 L85.938,94.722 L75.000,113.667"/>
      <path d="M75.000,108.253 L68.750,97.428 L81.250,97.428 L75.000,108.253"/>
      <path d="M75.000,102.840 L73.438,100.135 L76.562,100.135 L75.000,102.840"/>
      <path d="M57.692,119.911 L42.308,119.911 L50.000,106.588 L57.692,119.911"/>
      <path d="M51.924,116.581 L48.076,116.581 L50.000,113.249 L51.924,116.581"/>
      <path d="M93.750,140.729 L106.250,140.729 L100.000,151.554 L93.750,140.729"/>
      <path d="M84.375,135.317 L115.625,135.317 L100.000,162.381 L84.375,135.317"/>
      <path d="M75.000,156.550 L84.616,173.205 L75.000,189.860 L65.384,173.205 L75.000,156.550"/>
      <path d="M75.000,169.875 L76.923,173.205 L75.000,176.535 L73.077,173.205 L75.000,169.875"/>
      <path d="M80.769,173.205 L75.000,183.198 L69.231,173.205 L75.000,163.212 L80.769,173.205"/>
      <path d="M88.462,173.205 L75.000,196.521 L61.538,173.205 L75.000,149.889 L88.462,173.205"/>
      <path d="M92.308,173.205 L75.000,203.183 L57.692,173.205 L75.000,143.227 L92.308,173.205"/>
      <path d="M96.154,173.205 L75.000,209.844 L53.846,173.205 L75.000,136.566 L96.154,173.205"/>
      <path d="M115.000,181.865 L135.000,181.865 L125.000,199.186 L115.000,181.865"/>
      <path d="M100.000,190.525 L115.000,216.506 L100.000,242.487 L85.000,216.506 L100.000,190.525"/>
      <path d="M100.000,207.846 L105.000,216.506 L100.000,225.166 L95.000,216.506 L100.000,207.846"/>
      <path d="M100.000,199.185 L110.000,216.506 L100.000,233.827 L90.000,216.506 L100.000,199.185"/>
      <path d="M100.000,181.865 L120.000,216.506 L100.000,251.148 L80.000,216.506 L100.000,181.865"/>
      <path d="M82.500,125.574 L102.500,90.933 L142.500,90.933 L122.500,125.574 L82.500,125.574"/>
      <path d="M105.000,112.583 L110.000,103.924 L120.000,103.924 L115.000,112.583 L105.000,112.583"/>
      <path d="M97.500,116.914 L107.500,99.593 L127.500,99.593 L117.500,116.914 L97.500,116.914"/>
      <path d="M90.000,121.244 L105.000,95.263 L135.000,95.263 L120.000,121.244 L90.000,121.244"/>
      <path d="M140.000,121.244 L150.000,103.923 L160.000,121.244 L140.000,121.244"/>
      <path d="M196.874,167.793 L203.126,167.793 L206.251,173.205 L203.126,178.617 L196.874,178.617 L193.749,173.205 L196.874,167.793"/>
      <path d="M193.750,162.380 L206.250,162.380 L212.500,173.205 L206.250,184.030 L193.750,184.030 L187.500,173.205 L193.750,162.380"/>
      <path d="M190.625,156.967 L209.375,156.967 L218.750,173.205 L209.375,189.443 L190.625,189.443 L181.250,173.205 L190.625,156.967"/>
      <path d="M187.500,151.555 L212.500,151.555 L225.000,173.205 L212.500,194.855 L187.500,194.855 L175.000,173.205 L187.500,151.555"/>
      <path d="M184.374,146.142 L215.626,146.142 L231.250,173.205 L215.626,200.268 L184.374,200.268 L168.750,173.205 L184.374,146.142"/>
      <path d="M225.000,112.584 L215.000,95.263 L235.000,95.263 L225.000,112.584"/>
      <path d="M218.750,140.729 L237.500,173.205 L218.750,205.681 L181.250,205.681 L162.500,173.205 L181.250,140.729 L218.750,140.729"/>
      <path d="M221.876,135.317 L243.751,173.205 L221.876,211.093 L178.124,211.093 L156.249,173.205 L178.124,135.317 L221.876,135.317"/>
      <path d="M265.000,164.545 L275.000,147.224 L285.000,164.545 L265.000,164.545"/>
      <path d="M175.000,233.827 L185.000,251.148 L165.000,251.148 L175.000,233.827"/>
      <path d="M140.625,254.395 L109.375,254.395 L125.000,227.332 L140.625,254.395"/>
      <path d="M131.250,248.983 L118.750,248.983 L125.000,238.157 L131.250,248.983"/>
      <path d="M76.924,273.131 L75.000,276.463 L73.076,273.131 L76.924,273.131"/>
      <path d="M82.692,269.801 L75.000,283.124 L67.308,269.801 L82.692,269.801"/>
      <path d="M94.231,263.139 L75.000,296.447 L55.769,263.139 L94.231,263.139"/>
      <path d="M109.616,323.094 L113.461,323.094 L115.384,326.425 L111.539,326.425 L109.616,323.094"/>
      <path d="M115.385,319.763 L121.154,329.756 L109.615,329.756 L103.846,319.763 L115.385,319.763"/>
      <path d="M117.308,316.432 L126.924,333.087 L107.692,333.087 L98.076,316.432 L117.308,316.432"/>
      <path d="M119.231,313.102 L132.692,336.417 L105.769,336.417 L92.308,313.102 L119.231,313.102"/>
      <path d="M148.438,316.641 L151.562,316.641 L150.000,319.346 L148.438,316.641"/>
      <path d="M143.750,313.934 L156.250,313.934 L150.000,324.759 L143.750,313.934"/>
      <path d="M139.063,311.228 L160.937,311.228 L150.000,330.172 L139.063,311.228"/>
      <path d="M134.375,308.522 L165.625,308.522 L150.000,335.586 L134.375,308.522"/>
      <path d="M121.154,309.771 L138.462,339.748 L103.846,339.748 L86.538,309.771 L121.154,309.771"/>
      <path d="M123.077,306.440 L144.231,343.079 L101.923,343.079 L80.769,306.440 L123.077,306.440"/>
      <path d="M129.687,305.815 L170.313,305.815 L150.000,340.997 L129.687,305.815"/>
      <path d="M173.076,333.087 L175.000,329.755 L176.924,333.087 L173.076,333.087"/>
      <path d="M167.308,336.417 L175.000,323.094 L182.692,336.417 L167.308,336.417"/>
      <path d="M161.538,339.748 L175.000,316.432 L188.462,339.748 L161.538,339.748"/>
      <path d="M155.769,343.079 L175.000,309.771 L194.231,343.079 L155.769,343.079"/>
      <path d="M179.687,305.815 L220.313,305.815 L200.000,340.997 L179.687,305.815"/>
      <path d="M198.438,316.641 L201.562,316.641 L200.000,319.346 L198.438,316.641"/>
      <path d="M193.750,313.934 L206.250,313.934 L200.000,324.759 L193.750,313.934"/>
      <path d="M189.063,311.228 L210.937,311.228 L200.000,330.172 L189.063,311.228"/>
      <path d="M184.375,308.522 L215.625,308.522 L200.000,335.586 L184.375,308.522"/>
      <path d="M223.076,333.087 L225.000,329.755 L226.924,333.087 L223.076,333.087"/>
      <path d="M217.308,336.417 L225.000,323.094 L232.692,336.417 L217.308,336.417"/>
      <path d="M211.538,339.748 L225.000,316.432 L238.462,339.748 L211.538,339.748"/>
      <path d="M205.769,343.079 L225.000,309.771 L244.231,343.079 L205.769,343.079"/>
      <path d="M229.687,305.815 L270.313,305.815 L250.000,340.997 L229.687,305.815"/>
      <path d="M248.438,316.641 L251.562,316.641 L250.000,319.346 L248.438,316.641"/>
      <path d="M243.750,313.934 L256.250,313.934 L250.000,324.759 L243.750,313.934"/>
      <path d="M239.063,311.228 L260.937,311.228 L250.000,330.172 L239.063,311.228"/>
      <path d="M234.375,308.522 L265.625,308.522 L250.000,335.586 L234.375,308.522"/>
      <path d="M236.538,296.447 L253.846,266.470 L288.462,266.470 L271.154,296.447 L236.538,296.447"/>
      <path d="M230.769,299.778 L251.923,263.139 L294.231,263.139 L273.077,299.778 L230.769,299.778"/>
      <path d="M284.616,326.425 L286.539,323.094 L290.384,323.094 L288.461,326.425 L284.616,326.425"/>
      <path d="M290.385,329.756 L278.846,329.756 L284.615,319.763 L296.154,319.763 L290.385,329.756"/>
      <path d="M292.308,333.087 L273.076,333.087 L282.692,316.432 L301.924,316.432 L292.308,333.087"/>
      <path d="M294.231,336.417 L267.308,336.417 L280.769,313.102 L307.692,313.102 L294.231,336.417"/>
      <path d="M296.154,339.748 L261.538,339.748 L278.846,309.771 L313.462,309.771 L296.154,339.748"/>
      <path d="M298.077,343.079 L255.769,343.079 L276.923,306.440 L319.231,306.440 L298.077,343.079"/>
    </g>
  </g>
  <g inkscape:groupmode="layer" id="outlines" inkscape:label="Outlines">
    <g transform="translate(0.5,2.25240473581) scale(0.01875)" fill="none" stroke="#000000" stroke-width="0.629921259843" stroke-linecap="round">
      <path d="M100.000,86.603 L125.000,43.301 L150.000,0.000 L200.000,0.000 L250.000,0.000 L300.000,0.000 L325.000,43.301 L350.000,86.603 L375.000,129.904 L400.000,173.205 L375.000,216.506 L350.000,259.808 L325.000,303.109 L300.000,346.410 L250.000,346.410 L200.000,346.410 L150.000,346.410 L100.000,346.410 L75.000,303.109 L50.000,259.808 L25.000,216.506 L0.000,173.205 L25.000,129.904 L50.000,86.603 L75.000,43.301 L100.000,0.000 L150.000,0.000 L175.000,43.301 L200.000,86.603 L225.000,129.904 L250.000,173.205 L300.000,173.205 L325.000,129.904 L350.000,86.603 L300.000,86.603 L250.000,86.603 L200.000,86.603 L150.000,86.603 L100.000,86.603 L50.000,86.603 L75.000,129.904 L100.000,173.205 L125.000,216.506 L150.000,259.808 L175.000,303.109 L200.000,346.410 L225.000,303.109 L250.000,259.808 L275.000,216.506 L300.000,173.205 L275.000,129.904 L250.000,86.603 L225.000,43.301 L200.000,0.000 L175.000,43.301 L150.000,86.603 L125.000,129.904 L100.000,173.205 L75.000,216.506 L50.000,259.808 L100.000,259.808 L150.000,259.808 L200.000,259.808 L250.000,259.808 L300.000,259.808 L350.000,259.808 L325.000,216.506 L300.000,173.205"/>
      <path d="M325.000,129.904 L350.000,173.205 L375.000,216.506 L325.000,216.506 L275.000,216.506 L225.000,216.506 L250.000,259.808"/>
      <path d="M300.000,259.808 L275.000,303.109 L250.000,346.410 L225.000,303.109 L200.000,259.808 L175.000,216.506 L150.000,259.808"/>
      <path d="M175.000,303.109 L125.000,303.109 L75.000,303.109 L100.000,259.808 L125.000,216.506 L150.000,173.205 L175.000,129.904 L225.000,129.904 L250.000,86.603"/>
      <path d="M225.000,43.301 L275.000,43.301 L325.000,43.301 L300.000,86.603 L275.000,129.904 L250.000,173.205 L225.000,216.506 L175.000,216.506 L150.000,173.205 L100.000,173.205"/>
      <path d="M75.000,216.506 L50.000,173.205 L25.000,129.904 L75.000,129.904 L125.000,129.904 L175.000,129.904 L150.000,86.603"/>
      <path d="M175.000,43.301 L125.000,43.301 L75.000,43.301 L100.000,86.603 L75.000,129.904 L50.000,173.205 L25.000,216.506 L75.000,216.506 L100.000,259.808 L125.000,303.109 L150.000,346.410 L175.000,303.109 L225.000,303.109 L275.000,303.109 L325.000,303.109 L300.000,259.808 L325.000,216.506 L350.000,173.205 L375.000,129.904 L325.000,129.904 L300.000,86.603 L275.000,43.301 L250.000,0.000 L225.000,43.301 L175.000,43.301"/>
    </g>
  </g>
</svg>